HIERARCHY
ROOT Hips
{
	OFFSET 0.000000 0.000000 0.000000
	CHANNELS 6 Xposition Yposition Zposition Zrotation Yrotation Xrotation 
	JOINT LHipJoint
	{
		OFFSET 0.000000 0.000000 0.000000
		CHANNELS 3 Zrotation Yrotation Xrotation
		JOINT LeftUpLeg
		{
			OFFSET 1.363060 -1.794630 0.839290
			CHANNELS 3 Zrotation Yrotation Xrotation
			JOINT LeftLeg
			{
				OFFSET 2.448110 -6.726130 0.000000
				CHANNELS 3 Zrotation Yrotation Xrotation
				JOINT LeftFoot
				{
					OFFSET 2.562200 -7.039590 0.000000
					CHANNELS 3 Zrotation Yrotation Xrotation
					JOINT LeftToeBase
					{
						OFFSET 0.157640 -0.433110 2.322550
						CHANNELS 3 Zrotation Yrotation Xrotation
						End Site
						{
							OFFSET 0.000000 0.000000 0.000000
						}
					}
				}
			}
		}
	}
	JOINT RHipJoint
	{
		OFFSET 0.000000 0.000000 0.000000
		CHANNELS 3 Zrotation Yrotation Xrotation
		JOINT RightUpLeg
		{
			OFFSET -1.305520 -1.794630 0.839290
			CHANNELS 3 Zrotation Yrotation Xrotation
			JOINT RightLeg
			{
				OFFSET -2.542530 -6.985550 0.000000
				CHANNELS 3 Zrotation Yrotation Xrotation
				JOINT RightFoot
				{
					OFFSET -2.568260 -7.056230 0.000000
					CHANNELS 3 Zrotation Yrotation Xrotation
					JOINT RightToeBase
					{
						OFFSET -0.164730 -0.452590 2.363150
						CHANNELS 3 Zrotation Yrotation Xrotation
						End Site
						{
							OFFSET 0.000000 0.000000 0.000000
						}
					}
				}
			}
		}
	}
	JOINT LowerBack
	{
		OFFSET 0.000000 0.000000 0.000000
		CHANNELS 3 Zrotation Yrotation Xrotation
		JOINT Spine
		{
			OFFSET 0.028270 2.035590 -0.193380
			CHANNELS 3 Zrotation Yrotation Xrotation
			JOINT Spine1
			{
				OFFSET 0.056720 2.048850 -0.042750
				CHANNELS 3 Zrotation Yrotation Xrotation
				JOINT Neck
				{
					OFFSET 0.000000 0.000000 0.000000
					CHANNELS 3 Zrotation Yrotation Xrotation
					JOINT Neck1
					{
						OFFSET -0.054170 1.746240 0.172020
						CHANNELS 3 Zrotation Yrotation Xrotation
						JOINT Head
						{
							OFFSET 0.104070 1.761360 -0.123970
							CHANNELS 3 Zrotation Yrotation Xrotation
							End Site
							{
								OFFSET 0.000000 0.000000 0.000000
							}
						}
					}
				}
				JOINT LeftShoulder
				{
					OFFSET 0.000000 0.000000 0.000000
					CHANNELS 3 Zrotation Yrotation Xrotation
					JOINT LeftArm
					{
						OFFSET 3.362410 1.200890 -0.311210
						CHANNELS 3 Zrotation Yrotation Xrotation
						JOINT LeftForeArm
						{
							OFFSET 4.983000 -0.000000 -0.000000
							CHANNELS 3 Zrotation Yrotation Xrotation
							JOINT LeftHand
							{
								OFFSET 3.483560 -0.000000 -0.000000
								CHANNELS 3 Zrotation Yrotation Xrotation
								JOINT LeftFingerBase
								{
									OFFSET 0.000000 0.000000 0.000000
									CHANNELS 3 Zrotation Yrotation Xrotation
									JOINT LeftHandIndex1
									{
										OFFSET 0.715260 -0.000000 -0.000000
										CHANNELS 3 Zrotation Yrotation Xrotation
										End Site
										{
											OFFSET 0.000000 0.000000 0.000000
										}
									}
								}
								JOINT LThumb
								{
									OFFSET 0.000000 0.000000 0.000000
									CHANNELS 3 Zrotation Yrotation Xrotation
									End Site
									{
										OFFSET 0.000000 0.000000 0.000000
									}
								}
							}
						}
					}
				}
				JOINT RightShoulder
				{
					OFFSET 0.000000 0.000000 0.000000
					CHANNELS 3 Zrotation Yrotation Xrotation
					JOINT RightArm
					{
						OFFSET -3.136600 1.374050 -0.404650
						CHANNELS 3 Zrotation Yrotation Xrotation
						JOINT RightForeArm
						{
							OFFSET -5.241900 -0.000000 -0.000000
							CHANNELS 3 Zrotation Yrotation Xrotation
							JOINT RightHand
							{
								OFFSET -3.444170 -0.000000 -0.000000
								CHANNELS 3 Zrotation Yrotation Xrotation
								JOINT RightFingerBase
								{
									OFFSET 0.000000 0.000000 0.000000
									CHANNELS 3 Zrotation Yrotation Xrotation
									JOINT RightHandIndex1
									{
										OFFSET -0.622530 -0.000000 -0.000000
										CHANNELS 3 Zrotation Yrotation Xrotation
										End Site
										{
											OFFSET 0.000000 0.000000 0.000000
										}
									}
								}
								JOINT RThumb
								{
									OFFSET 0.000000 0.000000 0.000000
									CHANNELS 3 Zrotation Yrotation Xrotation
									End Site
									{
										OFFSET 0.000000 0.000000 0.000000
									}
								}
							}
						}
					}
				}
			}
		}
	}
}
MOTION
Frames: 10
Frame Time: 0.008333
-0.251958 17.394375 -14.377535 2.622559 -45.010278 13.252807 5.952812 5.559472 1.285316 -23.023957 -26.227028 5.119833 -2.955170 -0.315122 5.135319 0.658851 -2.581350 -9.347634 0.069100 1.695900 4.666000 -10.897231 -5.210624 1.495376 7.052862 52.249379 -23.375794 1.110772 -7.305012 18.866261 4.122628 -31.416651 -9.835537 -0.265100 3.312300 -9.149400 0.893565 4.253809 -7.315050 0.064456 5.478520 -4.931545 -2.890712 2.660784 -5.177213 0.550042 9.331231 -12.190386 9.846164 11.690110 17.553566 3.503200 6.349500 7.340400 3.464363 -10.980072 1.083291 -67.162105 35.666433 65.720663 23.755904 -25.280390 -6.549357 -0.020145 -1.555056 -10.484518 -32.742524 21.972661 -14.437500 -7.125000 0.000000 0.000000 -54.870000 46.209600 -2.380900 -4.071563 12.056442 3.957494 65.701149 8.016152 75.138964 -20.829237 20.850853 -3.825878 -1.261174 -1.008395 -41.293341 -10.106455 20.733309 -3.032300 7.125000 0.000000 0.000000 12.772600 -9.407500 10.792000 
-0.262596 17.393730 -14.364534 2.813540 -44.999901 13.069038 5.950626 5.557373 1.285454 -23.241567 -26.172989 5.177201 -2.929386 -0.250877 5.314839 0.715248 -2.965088 -9.414327 0.152600 2.517200 6.937300 -10.880996 -5.208118 1.484047 7.062410 52.165858 -23.144184 1.113104 -7.290916 18.866078 4.101405 -31.240690 -10.233000 -0.218400 3.008200 -8.301600 0.719413 4.205079 -7.453026 0.081670 5.416739 -4.908256 -2.761982 2.646178 -5.073787 0.517248 9.335220 -12.147102 9.785225 11.707681 17.550872 3.469700 6.352600 7.329000 3.470871 -10.968617 1.085721 -67.331438 35.691004 65.603464 23.736727 -25.274004 -6.550902 -0.023810 -1.555279 -10.515891 -32.836564 22.202925 -14.613100 -7.125000 0.000000 0.000000 -55.121700 46.364800 -2.703600 -4.065248 12.046102 3.962674 65.674414 8.003649 75.084233 -20.833703 20.854092 -3.824133 -1.257868 -1.006470 -41.228797 -10.100187 20.660573 -3.021500 7.125000 0.000000 0.000000 12.774400 -9.477300 10.775200 
-0.272695 17.398350 -14.350888 2.945243 -44.958059 12.940178 5.958850 5.582821 1.295431 -23.357323 -26.091013 5.433200 -2.945265 -0.386677 4.999698 0.712547 -3.129807 -9.214277 0.165400 2.619800 7.222100 -10.864187 -5.213868 1.474670 7.085922 52.137741 -22.945611 1.112558 -7.300057 18.927732 4.085583 -31.067310 -11.026967 -0.150200 2.497300 -6.882100 0.619444 4.190286 -7.597829 0.070329 5.408280 -4.883739 -2.746477 2.644271 -4.954193 0.599705 9.325111 -12.132987 9.750757 11.685326 17.520116 3.431400 6.348000 7.316700 3.472144 -10.959220 1.089012 -67.247591 35.669940 65.637963 23.734573 -25.287140 -6.552428 -0.023805 -1.553623 -10.486713 -32.860226 22.210987 -14.630100 -7.125000 0.000000 0.000000 -55.142200 46.365500 -2.706800 -4.064592 12.042477 3.966678 65.689606 7.963010 75.133798 -20.872237 20.917012 -3.842315 -1.241812 -1.032822 -41.484448 -10.530686 20.499557 -3.155500 7.125000 0.000000 0.000000 12.505200 -9.570800 10.512300 
-0.273770 17.400714 -14.349921 3.002006 -44.955394 12.949109 5.974300 5.611521 1.305905 -23.317481 -25.975813 5.629632 -2.985299 -0.615054 4.437257 0.670102 -3.056123 -8.925672 0.134400 2.363000 6.510000 -10.891678 -5.225601 1.482189 7.023185 52.091408 -23.100921 1.079913 -7.331268 18.980589 4.135351 -31.507185 -9.020715 -0.346400 3.781900 -10.464000 0.582591 4.191365 -7.643644 0.051410 5.417865 -4.891635 -2.785265 2.643250 -4.959542 0.695056 9.337765 -12.122870 9.738830 11.690042 17.478701 3.406500 6.357700 7.301500 3.468816 -10.958806 1.088810 -67.126860 35.634976 65.636478 23.743098 -25.309767 -6.574930 -0.013937 -1.556166 -10.430776 -33.329908 22.224220 -14.905100 -7.125000 0.000000 0.000000 -55.453100 46.304300 -2.617200 -4.066175 12.046934 3.968400 65.692851 7.955574 75.269861 -20.885401 20.941052 -3.852151 -1.236929 -1.046151 -41.698426 -10.716530 20.492630 -3.220900 7.125000 0.000000 0.000000 12.390700 -9.552000 10.415900 
-0.275381 17.399962 -14.350566 2.867338 -44.981835 13.107463 5.969237 5.591191 1.298129 -23.206593 -25.919403 5.376176 -2.954433 -0.481565 4.755552 0.728792 -3.357712 -9.077286 0.158100 2.561900 7.061200 -10.929372 -5.227012 1.497176 7.113721 52.053073 -23.263233 1.053449 -7.326468 18.938572 4.097628 -31.939968 -6.148811 -0.723700 5.436000 -15.156400 0.678524 4.191180 -7.703142 0.067208 5.402922 -4.904306 -2.781284 2.634012 -4.960061 0.682613 9.369875 -12.106640 9.748580 11.734839 17.485562 3.413900 6.378200 7.295500 3.471057 -10.954481 1.089271 -67.187020 35.592058 65.603480 23.712090 -25.274089 -6.554273 -0.012522 -1.556265 -10.470463 -33.203717 22.134904 -14.785500 -7.125000 0.000000 0.000000 -55.299100 46.258300 -2.513000 -4.061634 12.040675 3.974348 65.562084 7.980973 75.654767 -20.915781 20.980965 -3.875400 -1.242290 -1.055661 -41.969458 -10.826019 20.684979 -3.285500 7.125000 0.000000 0.000000 12.328200 -9.354900 10.410800 
-0.277530 17.398780 -14.347987 2.699106 -44.993631 13.251049 5.954281 5.545171 1.281156 -23.176975 -25.912134 4.964738 -2.892783 -0.158816 5.544496 0.809257 -3.584398 -9.504999 0.121300 2.244800 6.182800 -10.937958 -5.215629 1.505424 7.279470 51.975755 -23.258468 1.065071 -7.291336 18.838418 4.059273 -31.966044 -5.475125 -0.850900 5.883200 -16.445900 0.803590 4.194740 -7.742360 0.097438 5.385955 -4.911403 -2.742298 2.629078 -4.954004 0.566498 9.374551 -12.081066 9.782999 11.753792 17.494828 3.450000 6.379000 7.278300 3.473864 -10.952451 1.089865 -67.374419 35.589943 65.473714 23.678479 -25.224657 -6.520745 -0.017489 -1.554700 -10.472999 -32.816097 22.021147 -14.505600 -7.125000 0.000000 0.000000 -54.958100 46.233100 -2.434000 -4.058676 12.028683 3.978673 65.449852 7.984648 75.859199 -20.930547 20.997766 -3.881539 -1.239460 -1.061074 -42.058668 -10.896340 20.662555 -3.307700 7.125000 0.000000 0.000000 12.284600 -9.366500 10.369100 
-0.280431 17.400392 -14.343260 2.695213 -44.954922 13.254283 5.950138 5.507613 1.266107 -23.291590 -25.959349 4.661928 -2.830857 0.132625 6.264918 0.875295 -3.793054 -9.835109 0.144300 2.447700 6.744600 -10.938572 -5.205116 1.506796 7.349818 51.893581 -23.150463 1.065723 -7.242574 18.721384 4.008715 -32.089713 -4.195289 -1.103600 6.674900 -18.755600 0.844985 4.178282 -7.794631 0.100718 5.357386 -4.903149 -2.753344 2.616849 -4.904495 0.534148 9.376186 -12.073230 9.765856 11.762600 17.523363 3.448000 6.379400 7.288000 3.476884 -10.948389 1.092544 -67.481322 35.597291 65.231132 23.650409 -25.193875 -6.508552 -0.015426 -1.555474 -10.326601 -32.912032 21.942657 -14.518400 -7.125000 0.000000 0.000000 -54.955100 46.160700 -2.293700 -4.060419 12.025338 3.971699 65.534359 8.004570 75.572528 -20.841654 20.885787 -3.824016 -1.227872 -1.039971 -41.533688 -10.621905 20.246220 -3.154700 7.125000 0.000000 0.000000 12.443700 -9.799000 10.399300 
-0.285374 17.400929 -14.340144 2.609064 -44.896952 13.360564 5.946992 5.479374 1.253123 -23.243483 -26.007311 4.385676 -2.772464 0.323061 6.725254 0.954158 -4.325861 -9.881431 0.352000 3.811600 10.547300 -10.944996 -5.200143 1.510915 7.430081 51.877886 -23.117232 1.063475 -7.207050 18.632681 3.949311 -32.240184 -2.933489 -1.334200 7.314100 -20.649500 0.922198 4.160214 -7.910100 0.113401 5.321640 -4.897680 -2.764226 2.598395 -4.843854 0.597668 9.403469 -12.006981 9.677076 11.801222 17.515913 3.387800 6.397600 7.278800 3.484728 -10.938331 1.098882 -67.506549 35.548344 65.160900 23.587314 -25.135885 -6.479725 -0.012821 -1.556024 -10.266579 -32.937358 21.856140 -14.486900 -7.125000 0.000000 0.000000 -54.900400 46.093200 -2.158500 -4.055081 12.021425 3.969348 65.570188 8.043342 75.447794 -20.767633 20.793592 -3.779104 -1.220967 -1.020530 -41.118128 -10.364046 19.962586 -3.027800 7.125000 0.000000 0.000000 12.597000 -10.102800 10.454700 
-0.290746 17.398243 -14.337780 2.296513 -44.827351 13.596543 5.938101 5.463412 1.246332 -23.005001 -26.004698 4.187445 -2.740385 0.440283 7.007170 0.990550 -4.535927 -9.904761 0.456100 4.332500 12.013900 -10.931499 -5.198513 1.513527 7.697231 51.982854 -22.992698 1.105764 -7.183509 18.590799 4.129552 -32.265860 -5.405126 -0.922300 6.118600 -17.129000 1.155533 4.175748 -7.976766 0.143482 5.319211 -4.893525 -2.796116 2.590435 -4.791154 0.656094 9.429567 -11.988598 9.641611 11.833583 17.513214 3.359800 6.415500 7.275800 3.492599 -10.928340 1.101611 -67.528356 35.477255 65.194362 23.541669 -25.094027 -6.452399 -0.024492 -1.553394 -10.227913 -32.670940 21.970079 -14.397300 -7.125000 0.000000 0.000000 -54.823100 46.216500 -2.390300 -4.045210 12.013708 3.981777 65.413405 8.029172 75.739152 -20.896205 20.929281 -3.811994 -1.201942 -1.029312 -41.411125 -10.401487 19.704687 -3.007800 7.125000 0.000000 0.000000 12.568600 -10.343000 10.367000 
-0.290746 17.396739 -14.341648 2.222149 -44.835902 13.618750 5.934381 5.454506 1.244981 -22.984337 -25.926797 4.104151 -2.731743 0.503023 7.166633 0.989637 -4.429741 -10.008235 0.361800 3.864100 10.694700 -10.910168 -5.186064 1.510856 7.796317 51.905803 -22.947063 1.143981 -7.181159 18.582191 4.165635 -31.880987 -7.815452 -0.517200 4.609500 -12.797900 1.218764 4.205334 -7.896833 0.129601 5.362321 -4.891649 -2.856876 2.605670 -4.790966 0.643504 9.421837 -12.101309 9.744899 11.813337 17.566410 3.426000 6.410900 7.316600 3.485878 -10.929234 1.100061 -67.506724 35.414120 65.065954 23.550195 -25.095025 -6.438182 -0.043799 -1.547872 -10.030974 -32.206916 22.030071 -14.167700 -7.125000 0.000000 0.000000 -54.569500 46.327900 -2.581100 -4.049430 12.014843 3.989631 65.287548 7.998126 75.974794 -21.070376 21.113746 -3.864352 -1.184925 -1.042035 -41.826174 -10.474766 19.526443 -3.009800 7.125000 0.000000 0.000000 12.519800 -10.502800 10.283000 
